<svg xmlns="http://www.w3.org/2000/svg" xmlns:xlink="http://www.w3.org/1999/xlink" width="1920" zoomAndPan="magnify" viewBox="0 0 1440 359.999987" height="480" preserveAspectRatio="xMidYMid meet" version="1.0"><defs><clipPath id="b6f7be457e"><path d="M 0 25.0625 L 441.953125 25.0625 L 441.953125 71 L 0 71 Z M 0 25.0625 " clip-rule="nonzero"/></clipPath><clipPath id="65ce97c484"><path d="M 0 0 L 151.707031 0 L 151.707031 22 L 0 22 Z M 0 0 " clip-rule="nonzero"/></clipPath><clipPath id="9b0c430402"><path d="M 0 105 L 666.664062 105 L 666.664062 120 L 0 120 Z M 0 105 " clip-rule="nonzero"/></clipPath><clipPath id="ded4e09fa7"><path d="M 0 156.210938 L 441.953125 156.210938 L 441.953125 202 L 0 202 Z M 0 156.210938 " clip-rule="nonzero"/></clipPath><clipPath id="1365b316c9"><path d="M 0 205 L 151.707031 205 L 151.707031 236.777344 L 0 236.777344 Z M 0 205 " clip-rule="nonzero"/></clipPath><clipPath id="013f59bf18"><path d="M 836.652344 333 L 853 333 L 853 351 L 836.652344 351 Z M 836.652344 333 " clip-rule="nonzero"/></clipPath></defs><rect x="-144" width="1728" fill="#ffffff" y="-35.999999" height="431.999984" fill-opacity="1"/><rect x="-144" width="1728" fill="#ffffff" y="-35.999999" height="431.999984" fill-opacity="1"/><rect x="-144" width="1728" fill="#1e2234" y="-35.999999" height="431.999984" fill-opacity="1"/><path fill="#ffffff" d="M 366.671875 61.808594 C 366.042969 58.699219 363.292969 56.355469 360 56.355469 C 356.242188 56.355469 353.191406 59.402344 353.191406 63.164062 C 353.191406 66.925781 356.242188 69.976562 360 69.976562 C 363.695312 69.976562 366.691406 67.027344 366.796875 63.355469 L 466.605469 63.355469 L 487.832031 42.113281 L 545.105469 42.113281 L 573.75 70.773438 L 636.101562 70.773438 C 636.503906 74.148438 639.371094 76.761719 642.851562 76.761719 C 646.613281 76.761719 649.664062 73.714844 649.664062 69.953125 C 649.664062 66.191406 646.613281 63.140625 642.851562 63.140625 C 639.335938 63.140625 636.445312 65.804688 636.085938 69.230469 L 574.394531 69.230469 L 545.75 40.570312 L 487.195312 40.570312 L 465.96875 61.808594 L 366.671875 61.808594 " fill-opacity="1" fill-rule="nonzero"/><path fill="#ffffff" d="M 80.8125 46.300781 C 80.429688 42.90625 77.550781 40.261719 74.054688 40.261719 C 70.292969 40.261719 67.25 43.308594 67.25 47.070312 C 67.25 50.832031 70.292969 53.882812 74.054688 53.882812 C 77.550781 53.882812 80.429688 51.242188 80.8125 47.84375 L 141.246094 47.84375 L 160.929688 28.152344 L 249.035156 28.152344 L 261.398438 15.773438 L 299.53125 15.773438 C 299.910156 19.171875 302.792969 21.8125 306.289062 21.8125 C 310.046875 21.8125 313.097656 18.769531 313.097656 15.007812 C 313.097656 11.246094 310.046875 8.191406 306.289062 8.191406 C 302.792969 8.191406 299.910156 10.835938 299.53125 14.230469 L 260.753906 14.230469 L 248.390625 26.597656 L 160.292969 26.597656 L 140.601562 46.300781 L 80.8125 46.300781 " fill-opacity="1" fill-rule="nonzero"/><path fill="#ffffff" d="M 630.484375 165.089844 C 626.730469 165.089844 623.679688 168.140625 623.679688 171.902344 C 623.679688 173.5 624.238281 174.96875 625.167969 176.132812 L 609.074219 192.234375 L 567.695312 192.234375 C 567.308594 188.839844 564.433594 186.195312 560.9375 186.195312 C 557.175781 186.195312 554.125 189.25 554.125 193.011719 C 554.125 196.765625 557.175781 199.816406 560.9375 199.816406 C 564.433594 199.816406 567.308594 197.175781 567.695312 193.777344 L 609.710938 193.777344 L 626.257812 177.230469 C 627.417969 178.152344 628.890625 178.710938 630.484375 178.710938 C 634.25 178.710938 637.292969 175.65625 637.292969 171.902344 C 637.292969 168.140625 634.25 165.089844 630.484375 165.089844 " fill-opacity="1" fill-rule="nonzero"/><path fill="#ffffff" d="M 644.105469 150.8125 C 640.621094 150.8125 637.753906 153.425781 637.34375 156.796875 L 573.75 156.796875 L 545.105469 185.457031 L 487.832031 185.457031 L 466.605469 164.21875 L 366.746094 164.21875 C 366.3125 160.867188 363.460938 158.277344 360 158.277344 C 356.242188 158.277344 353.191406 161.328125 353.191406 165.089844 C 353.191406 168.851562 356.242188 171.902344 360 171.902344 C 363.53125 171.902344 366.4375 169.210938 366.773438 165.761719 L 465.96875 165.761719 L 487.195312 187 L 545.75 187 L 574.394531 158.34375 L 637.339844 158.34375 C 637.695312 161.765625 640.585938 164.429688 644.105469 164.429688 C 647.863281 164.429688 650.90625 161.378906 650.90625 157.617188 C 650.90625 153.855469 647.863281 150.8125 644.105469 150.8125 " fill-opacity="1" fill-rule="nonzero"/><path fill="#ffffff" d="M 560.9375 41.375 C 564.433594 41.375 567.308594 38.734375 567.695312 35.335938 L 609.074219 35.335938 L 625.167969 51.4375 C 624.238281 52.601562 623.679688 54.066406 623.679688 55.667969 C 623.679688 59.429688 626.730469 62.484375 630.484375 62.484375 C 634.25 62.484375 637.292969 59.429688 637.292969 55.667969 C 637.292969 51.90625 634.25 48.863281 630.484375 48.863281 C 628.890625 48.863281 627.417969 49.417969 626.257812 50.339844 L 609.710938 33.792969 L 567.695312 33.792969 C 567.308594 30.398438 564.433594 27.753906 560.9375 27.753906 C 557.175781 27.753906 554.125 30.800781 554.125 34.5625 C 554.125 38.324219 557.175781 41.375 560.9375 41.375 " fill-opacity="1" fill-rule="nonzero"/><path fill="#ffffff" d="M 434.195312 41.375 C 437.691406 41.375 440.566406 38.734375 440.953125 35.335938 L 470.707031 35.335938 C 471.097656 38.734375 473.972656 41.375 477.46875 41.375 C 481.226562 41.375 484.277344 38.324219 484.277344 34.5625 C 484.277344 30.800781 481.226562 27.753906 477.46875 27.753906 C 473.972656 27.753906 471.097656 30.398438 470.707031 33.792969 L 440.953125 33.792969 C 440.566406 30.398438 437.691406 27.753906 434.195312 27.753906 C 430.433594 27.753906 427.382812 30.800781 427.382812 34.5625 C 427.382812 38.324219 430.433594 41.375 434.195312 41.375 " fill-opacity="1" fill-rule="nonzero"/><path fill="#ffffff" d="M 306.289062 205.757812 C 302.792969 205.757812 299.910156 208.394531 299.53125 211.789062 L 261.398438 211.789062 L 249.035156 199.421875 L 160.929688 199.421875 L 141.246094 179.726562 L 80.8125 179.726562 C 80.429688 176.332031 77.550781 173.6875 74.054688 173.6875 C 70.292969 173.6875 67.25 176.742188 67.25 180.503906 C 67.25 184.265625 70.292969 187.308594 74.054688 187.308594 C 77.550781 187.308594 80.429688 184.667969 80.8125 181.269531 L 140.601562 181.269531 L 160.292969 200.972656 L 248.390625 200.972656 L 260.753906 213.339844 L 299.53125 213.339844 C 299.910156 216.738281 302.792969 219.378906 306.289062 219.378906 C 310.046875 219.378906 313.097656 216.328125 313.097656 212.566406 C 313.097656 208.804688 310.046875 205.757812 306.289062 205.757812 " fill-opacity="1" fill-rule="nonzero"/><g clip-path="url(#b6f7be457e)"><path fill="#ffffff" d="M -14.046875 51.175781 C -10.5625 51.175781 -7.703125 48.554688 -7.292969 45.179688 L 37.382812 45.179688 L 62.914062 70.722656 L 147.742188 70.722656 L 167.886719 50.574219 L 294.628906 50.574219 L 317.816406 27.375 L 409.914062 27.375 L 429.90625 47.375 C 428.824219 48.585938 428.160156 50.179688 428.160156 51.929688 C 428.160156 55.691406 431.203125 58.742188 434.960938 58.742188 C 438.722656 58.742188 441.773438 55.691406 441.773438 51.929688 C 441.773438 48.167969 438.722656 45.117188 434.960938 45.117188 C 433.511719 45.117188 432.167969 45.578125 431.0625 46.351562 L 410.550781 25.832031 L 317.171875 25.832031 L 293.992188 49.023438 L 167.242188 49.023438 L 147.105469 69.179688 L 63.554688 69.179688 L 38.027344 43.636719 L -7.28125 43.636719 C -7.644531 40.21875 -10.535156 37.554688 -14.046875 37.554688 C -17.804688 37.554688 -20.855469 40.605469 -20.855469 44.367188 C -20.855469 48.128906 -17.804688 51.175781 -14.046875 51.175781 " fill-opacity="1" fill-rule="nonzero"/></g><g clip-path="url(#65ce97c484)"><path fill="#ffffff" d="M -14.046875 4.417969 C -10.550781 4.417969 -7.675781 1.773438 -7.285156 -1.621094 L 126.675781 -1.621094 L 139.050781 10.769531 C 138.128906 11.933594 137.574219 13.402344 137.574219 15.007812 C 137.574219 18.769531 140.625 21.8125 144.382812 21.8125 C 148.144531 21.8125 151.1875 18.769531 151.1875 15.007812 C 151.1875 11.246094 148.144531 8.191406 144.382812 8.191406 C 142.78125 8.191406 141.3125 8.75 140.148438 9.679688 L 127.3125 -3.164062 L -7.285156 -3.164062 C -7.675781 -6.5625 -10.550781 -9.203125 -14.046875 -9.203125 C -17.804688 -9.203125 -20.855469 -6.152344 -20.855469 -2.398438 C -20.855469 1.363281 -17.804688 4.417969 -14.046875 4.417969 " fill-opacity="1" fill-rule="nonzero"/></g><path fill="#ffffff" d="M -14.046875 76.8125 C -10.550781 76.8125 -7.675781 74.171875 -7.285156 70.773438 L 22.628906 70.773438 L 45.136719 93.292969 L 182.765625 93.292969 L 199.574219 76.476562 L 572.59375 76.476562 L 589.984375 93.871094 L 619.863281 93.871094 C 620.25 97.269531 623.125 99.910156 626.621094 99.910156 C 630.382812 99.910156 633.433594 96.867188 633.433594 93.105469 C 633.433594 89.34375 630.382812 86.289062 626.621094 86.289062 C 623.125 86.289062 620.25 88.933594 619.863281 92.328125 L 590.617188 92.328125 L 573.230469 74.929688 L 198.929688 74.929688 L 182.121094 91.75 L 45.78125 91.75 L 23.265625 69.230469 L -7.285156 69.230469 C -7.675781 65.828125 -10.550781 63.191406 -14.046875 63.191406 C -17.804688 63.191406 -20.855469 66.238281 -20.855469 70 C -20.855469 73.761719 -17.804688 76.8125 -14.046875 76.8125 " fill-opacity="1" fill-rule="nonzero"/><g clip-path="url(#9b0c430402)"><path fill="#ffffff" d="M -14.046875 119.246094 C -10.820312 119.246094 -8.128906 116.992188 -7.425781 113.976562 L 653.234375 113.976562 C 653.933594 116.992188 656.628906 119.246094 659.851562 119.246094 C 663.613281 119.246094 666.664062 116.195312 666.664062 112.433594 C 666.664062 108.671875 663.613281 105.617188 659.851562 105.617188 C 656.628906 105.617188 653.933594 107.871094 653.234375 110.886719 L -7.425781 110.886719 C -8.128906 107.871094 -10.820312 105.617188 -14.046875 105.617188 C -17.804688 105.617188 -20.855469 108.671875 -20.855469 112.433594 C -20.855469 116.195312 -17.804688 119.246094 -14.046875 119.246094 " fill-opacity="1" fill-rule="nonzero"/></g><path fill="#ffffff" d="M -14.046875 164.378906 C -10.550781 164.378906 -7.675781 161.738281 -7.285156 158.34375 L 23.265625 158.34375 L 45.78125 135.824219 L 182.121094 135.824219 L 198.929688 152.640625 L 573.230469 152.640625 L 590.617188 135.246094 L 619.863281 135.246094 C 620.25 138.640625 623.125 141.28125 626.621094 141.28125 C 630.382812 141.28125 633.433594 138.230469 633.433594 134.46875 C 633.433594 130.707031 630.382812 127.664062 626.621094 127.664062 C 623.125 127.664062 620.25 130.296875 619.863281 133.699219 L 589.984375 133.699219 L 572.59375 151.097656 L 199.574219 151.097656 L 182.765625 134.277344 L 45.136719 134.277344 L 22.628906 156.796875 L -7.285156 156.796875 C -7.675781 153.402344 -10.550781 150.761719 -14.046875 150.761719 C -17.804688 150.761719 -20.855469 153.8125 -20.855469 157.574219 C -20.855469 161.335938 -17.804688 164.378906 -14.046875 164.378906 " fill-opacity="1" fill-rule="nonzero"/><g clip-path="url(#ded4e09fa7)"><path fill="#ffffff" d="M -14.046875 190.289062 C -10.445312 190.289062 -7.5 187.476562 -7.265625 183.933594 L 38.027344 183.933594 L 63.554688 158.394531 L 147.105469 158.394531 L 167.242188 178.550781 L 293.992188 178.550781 L 317.171875 201.742188 L 410.550781 201.742188 L 431.0625 181.21875 C 432.167969 181.996094 433.511719 182.457031 434.960938 182.457031 C 438.722656 182.457031 441.773438 179.40625 441.773438 175.644531 C 441.773438 171.882812 438.722656 168.828125 434.960938 168.828125 C 431.203125 168.828125 428.160156 171.882812 428.160156 175.644531 C 428.160156 177.390625 428.824219 178.988281 429.90625 180.1875 L 409.914062 200.199219 L 317.816406 200.199219 L 294.628906 176.996094 L 167.886719 176.996094 L 147.742188 156.847656 L 62.914062 156.847656 L 37.382812 182.390625 L -7.339844 182.390625 C -7.859375 179.140625 -10.660156 176.660156 -14.046875 176.660156 C -17.804688 176.660156 -20.855469 179.710938 -20.855469 183.472656 C -20.855469 187.234375 -17.804688 190.289062 -14.046875 190.289062 " fill-opacity="1" fill-rule="nonzero"/></g><g clip-path="url(#1365b316c9)"><path fill="#ffffff" d="M 144.382812 205.757812 C 140.625 205.757812 137.574219 208.804688 137.574219 212.566406 C 137.574219 214.167969 138.128906 215.640625 139.050781 216.804688 L 126.675781 229.195312 L -7.285156 229.195312 C -7.675781 225.796875 -10.550781 223.15625 -14.046875 223.15625 C -17.804688 223.15625 -20.855469 226.199219 -20.855469 229.960938 C -20.855469 233.722656 -17.804688 236.777344 -14.046875 236.777344 C -10.550781 236.777344 -7.675781 234.132812 -7.285156 230.738281 L 127.3125 230.738281 L 140.148438 217.894531 C 141.3125 218.824219 142.78125 219.378906 144.382812 219.378906 C 148.144531 219.378906 151.1875 216.328125 151.1875 212.566406 C 151.1875 208.804688 148.144531 205.757812 144.382812 205.757812 " fill-opacity="1" fill-rule="nonzero"/></g><path fill="#ffffff" d="M 479.785156 186.195312 C 476.289062 186.195312 473.414062 188.839844 473.027344 192.234375 L 441.726562 192.234375 C 441.339844 188.839844 438.457031 186.195312 434.960938 186.195312 C 431.203125 186.195312 428.160156 189.25 428.160156 193.011719 C 428.160156 196.765625 431.203125 199.816406 434.960938 199.816406 C 438.457031 199.816406 441.339844 197.175781 441.726562 193.777344 L 473.027344 193.777344 C 473.414062 197.175781 476.289062 199.816406 479.785156 199.816406 C 483.546875 199.816406 486.597656 196.765625 486.597656 193.011719 C 486.597656 189.25 483.546875 186.195312 479.785156 186.195312 " fill-opacity="1" fill-rule="nonzero"/><path fill="#ffffff" d="M 885.46875 267.289062 L 893.941406 267.0625 L 902.410156 266.890625 L 919.355469 266.554688 L 936.300781 266.3125 L 953.238281 266.132812 L 970.183594 266.015625 L 987.125 265.933594 L 1004.070312 265.902344 L 1021.015625 265.921875 L 1020.046875 266.320312 L 1032.789062 253.632812 L 1045.574219 240.992188 L 1045.941406 240.628906 L 1046.429688 240.636719 L 1064.808594 240.816406 L 1083.195312 241.058594 C 1089.324219 241.132812 1095.449219 241.289062 1101.574219 241.40625 L 1110.769531 241.597656 L 1119.960938 241.839844 L 1110.769531 242.089844 L 1101.574219 242.277344 C 1095.449219 242.394531 1089.324219 242.546875 1083.195312 242.621094 L 1064.808594 242.871094 L 1046.429688 243.046875 L 1047.277344 242.691406 L 1034.65625 255.5 L 1021.980469 268.257812 L 1021.582031 268.660156 L 1021.015625 268.660156 L 1004.070312 268.679688 L 987.125 268.640625 L 970.183594 268.566406 L 953.238281 268.445312 L 936.300781 268.265625 L 919.355469 268.019531 L 902.410156 267.691406 L 893.941406 267.515625 L 885.46875 267.289062 " fill-opacity="1" fill-rule="nonzero"/><path fill="#ffffff" d="M 844.808594 341.933594 L 850.414062 334.183594 L 856.058594 326.460938 L 867.355469 311.023438 L 867.53125 310.78125 L 867.847656 310.777344 C 876.039062 310.644531 884.230469 310.613281 892.414062 310.523438 L 916.980469 310.300781 L 929.269531 310.203125 L 941.546875 310.148438 L 966.121094 310.050781 L 965.167969 310.445312 L 983.773438 291.753906 L 984.179688 291.347656 L 984.757812 291.347656 L 1028.636719 291.394531 L 1050.582031 291.492188 C 1057.894531 291.527344 1065.203125 291.550781 1072.523438 291.632812 L 1072.992188 291.636719 L 1073.300781 291.953125 L 1092.863281 311.898438 L 1092.261719 311.648438 L 1107.316406 311.785156 L 1122.375 311.996094 L 1137.433594 312.21875 L 1152.492188 312.503906 L 1137.433594 312.777344 L 1122.375 313.007812 L 1107.316406 313.21875 L 1092.261719 313.351562 L 1091.914062 313.355469 L 1091.65625 313.105469 L 1071.742188 293.519531 L 1072.523438 293.839844 C 1065.203125 293.925781 1057.894531 293.945312 1050.582031 293.980469 L 1028.636719 294.078125 L 984.757812 294.121094 L 985.734375 293.71875 L 967.066406 312.347656 L 966.671875 312.746094 L 966.121094 312.746094 L 941.546875 312.644531 L 929.269531 312.589844 L 916.980469 312.492188 L 892.414062 312.269531 C 884.230469 312.179688 876.039062 312.152344 867.847656 312.019531 L 868.339844 311.769531 L 856.597656 326.871094 L 850.714844 334.417969 L 844.808594 341.933594 " fill-opacity="1" fill-rule="nonzero"/><path fill="#ffffff" d="M 872.59375 196.714844 L 872.835938 221.144531 L 872.765625 220.96875 L 893.25 241.175781 L 892.921875 241.039062 L 934.265625 240.753906 L 933.738281 240.972656 L 954.308594 220.179688 L 954.5625 219.917969 L 954.9375 219.917969 L 1005.847656 219.679688 C 1022.820312 219.582031 1039.792969 219.605469 1056.761719 219.566406 L 1158.59375 219.40625 L 1159.171875 219.40625 L 1159.574219 219.820312 L 1191.296875 251.679688 L 1190.359375 251.289062 L 1249.40625 251.382812 L 1248.535156 251.742188 L 1270.660156 229.660156 L 1292.84375 207.636719 L 1293.15625 207.328125 L 1293.585938 207.332031 L 1372.140625 207.71875 L 1411.414062 208.019531 L 1450.691406 208.378906 L 1411.414062 208.734375 L 1372.140625 209.042969 L 1293.585938 209.425781 L 1294.328125 209.121094 L 1272.332031 231.335938 L 1250.277344 253.488281 L 1249.917969 253.847656 L 1249.40625 253.847656 L 1190.359375 253.941406 L 1189.816406 253.941406 L 1189.421875 253.550781 L 1157.605469 221.789062 L 1158.59375 222.199219 L 1056.761719 222.046875 C 1039.792969 222.003906 1022.820312 222.027344 1005.847656 221.929688 L 954.9375 221.691406 L 955.5625 221.433594 L 934.792969 242.035156 L 934.570312 242.257812 L 934.265625 242.25 L 892.921875 241.964844 L 892.726562 241.964844 L 892.597656 241.832031 L 872.417969 221.316406 L 872.34375 221.242188 L 872.351562 221.144531 L 872.59375 196.714844 " fill-opacity="1" fill-rule="nonzero"/><path fill="#ffffff" d="M 1206.035156 231.320312 L 1213.398438 223.601562 L 1220.800781 215.914062 C 1225.742188 210.796875 1230.664062 205.65625 1235.636719 200.570312 L 1250.539062 185.296875 L 1265.496094 170.074219 L 1265.839844 169.722656 L 1266.347656 169.71875 L 1284.476562 169.617188 L 1302.605469 169.5625 L 1320.734375 169.527344 L 1338.863281 169.5625 L 1337.902344 169.964844 L 1349.960938 157.945312 L 1362.058594 145.96875 L 1362.429688 145.609375 L 1362.925781 145.609375 L 1384.867188 145.785156 L 1406.808594 146.035156 L 1417.777344 146.191406 L 1439.714844 146.585938 L 1450.691406 146.839844 L 1439.714844 147.089844 L 1417.777344 147.488281 L 1406.808594 147.644531 L 1384.867188 147.890625 L 1362.925781 148.066406 L 1363.789062 147.703125 L 1351.828125 159.820312 L 1339.828125 171.890625 L 1339.429688 172.292969 L 1338.863281 172.292969 L 1320.734375 172.324219 L 1302.605469 172.292969 L 1284.476562 172.238281 L 1266.347656 172.140625 L 1267.203125 171.785156 L 1251.996094 186.757812 L 1236.746094 201.679688 C 1231.667969 206.660156 1226.53125 211.585938 1221.421875 216.53125 L 1213.746094 223.945312 L 1206.035156 231.320312 " fill-opacity="1" fill-rule="nonzero"/><path fill="#ffffff" d="M 897.667969 333.792969 L 924.945312 333.511719 L 952.226562 333.285156 L 979.503906 333.070312 L 1006.78125 332.933594 L 1006.171875 333.183594 L 1025.394531 313.746094 L 1025.679688 313.457031 L 1026.09375 313.457031 L 1048.632812 313.34375 L 1071.164062 313.257812 L 1071.65625 313.257812 L 1072.007812 313.609375 L 1097.296875 338.84375 L 1096.410156 338.476562 L 1151.222656 338.386719 L 1178.628906 338.335938 L 1206.035156 338.371094 L 1206.597656 338.371094 L 1206.992188 338.769531 L 1256.128906 388.136719 L 1255.25 387.773438 L 1283.839844 387.820312 L 1312.4375 387.941406 L 1312.886719 387.941406 L 1313.191406 388.253906 L 1332.617188 407.910156 L 1331.960938 407.632812 L 1378.007812 407.871094 L 1393.359375 408 L 1424.054688 408.25 L 1454.753906 408.566406 L 1424.054688 408.878906 L 1393.359375 409.128906 L 1378.007812 409.257812 L 1331.960938 409.496094 L 1331.582031 409.496094 L 1331.304688 409.222656 L 1311.675781 389.773438 L 1312.4375 390.082031 L 1283.839844 390.207031 L 1255.25 390.25 L 1254.742188 390.25 L 1254.375 389.890625 L 1205.074219 340.6875 L 1206.035156 341.085938 L 1178.628906 341.121094 L 1096.410156 340.980469 L 1095.886719 340.980469 L 1095.523438 340.613281 L 1070.320312 315.296875 L 1071.164062 315.644531 L 1048.632812 315.5625 L 1026.09375 315.449219 L 1026.800781 315.15625 L 1007.386719 334.402344 L 1007.132812 334.652344 L 1006.78125 334.648438 L 979.503906 334.511719 L 952.226562 334.296875 L 924.945312 334.074219 L 897.667969 333.792969 " fill-opacity="1" fill-rule="nonzero"/><path fill="#ffffff" d="M 1092.175781 272.039062 L 1108.523438 271.769531 L 1124.875 271.546875 L 1141.226562 271.332031 L 1157.578125 271.199219 L 1190.273438 270.9375 C 1201.175781 270.828125 1212.074219 270.820312 1222.972656 270.765625 L 1223.496094 270.761719 L 1223.875 271.136719 L 1240.363281 287.542969 L 1256.820312 303.976562 L 1255.84375 303.570312 L 1305.574219 303.609375 L 1330.4375 303.699219 L 1355.296875 303.832031 L 1405.03125 304.242188 L 1429.890625 304.5625 L 1442.324219 304.730469 L 1454.753906 304.953125 L 1442.324219 305.171875 L 1429.890625 305.339844 L 1405.03125 305.664062 L 1355.296875 306.070312 L 1330.4375 306.203125 L 1305.574219 306.296875 L 1255.84375 306.332031 L 1255.269531 306.332031 L 1254.871094 305.925781 L 1238.453125 289.449219 L 1222.074219 272.941406 L 1222.972656 273.316406 C 1212.074219 273.261719 1201.175781 273.25 1190.273438 273.144531 L 1157.578125 272.875 L 1141.226562 272.742188 L 1124.875 272.53125 L 1108.523438 272.3125 L 1092.175781 272.039062 " fill-opacity="1" fill-rule="nonzero"/><path fill="#ffffff" d="M 1266.347656 288.496094 L 1270.644531 283.898438 L 1274.972656 279.34375 L 1283.644531 270.226562 L 1292.363281 261.171875 L 1301.125 252.148438 L 1301.425781 251.835938 L 1301.886719 251.832031 C 1308.257812 251.738281 1314.628906 251.695312 1320.996094 251.644531 L 1330.550781 251.574219 L 1340.101562 251.550781 C 1346.476562 251.539062 1352.84375 251.496094 1359.214844 251.53125 L 1378.320312 251.585938 L 1397.429688 251.738281 L 1416.539062 251.996094 L 1426.09375 252.164062 C 1429.28125 252.210938 1432.464844 252.304688 1435.648438 252.378906 L 1445.203125 252.617188 C 1448.386719 252.6875 1451.570312 252.8125 1454.753906 252.910156 C 1451.570312 253.011719 1448.386719 253.136719 1445.203125 253.207031 L 1435.648438 253.4375 C 1432.464844 253.511719 1429.28125 253.613281 1426.09375 253.65625 L 1416.539062 253.828125 L 1397.429688 254.085938 L 1378.320312 254.234375 L 1359.214844 254.292969 C 1352.84375 254.328125 1346.476562 254.285156 1340.101562 254.273438 L 1330.550781 254.25 L 1320.996094 254.179688 C 1314.628906 254.128906 1308.257812 254.085938 1301.886719 253.992188 L 1302.652344 253.675781 L 1293.640625 262.445312 L 1284.597656 271.179688 L 1275.492188 279.855469 L 1270.941406 284.191406 L 1266.347656 288.496094 " fill-opacity="1" fill-rule="nonzero"/><path fill="#ffffff" d="M 1328.363281 304.953125 C 1330.585938 302.480469 1332.832031 300.039062 1335.082031 297.601562 C 1337.351562 295.179688 1339.605469 292.738281 1341.890625 290.335938 C 1344.179688 287.933594 1346.441406 285.507812 1348.753906 283.125 L 1355.648438 275.949219 L 1355.980469 275.613281 L 1356.488281 275.605469 L 1368.773438 275.464844 L 1381.054688 275.410156 L 1387.195312 275.398438 L 1393.339844 275.421875 C 1397.429688 275.441406 1401.527344 275.4375 1405.621094 275.496094 C 1409.714844 275.550781 1413.8125 275.574219 1417.90625 275.652344 C 1421.996094 275.742188 1426.09375 275.789062 1430.1875 275.90625 C 1434.28125 276.011719 1438.378906 276.117188 1442.472656 276.273438 L 1448.613281 276.503906 C 1450.664062 276.578125 1452.710938 276.691406 1454.753906 276.792969 C 1452.710938 276.886719 1450.664062 277.003906 1448.613281 277.078125 L 1442.472656 277.308594 C 1438.378906 277.457031 1434.28125 277.566406 1430.1875 277.671875 C 1426.09375 277.789062 1421.996094 277.839844 1417.90625 277.921875 C 1413.8125 278.007812 1409.714844 278.027344 1405.621094 278.082031 C 1401.527344 278.144531 1397.429688 278.136719 1393.339844 278.160156 L 1387.195312 278.179688 L 1381.054688 278.171875 L 1368.773438 278.109375 L 1356.488281 277.972656 L 1357.324219 277.625 L 1350.160156 284.539062 C 1347.78125 286.847656 1345.355469 289.113281 1342.957031 291.402344 C 1340.558594 293.699219 1338.117188 295.945312 1335.699219 298.21875 C 1333.269531 300.476562 1330.824219 302.722656 1328.363281 304.953125 " fill-opacity="1" fill-rule="nonzero"/><path fill="#ffffff" d="M 1196.542969 308.6875 C 1200.835938 308.582031 1205.128906 308.457031 1209.421875 308.390625 L 1222.296875 308.148438 L 1222.507812 308.148438 L 1222.675781 308.304688 L 1231.804688 317.144531 L 1240.910156 326.015625 L 1259.046875 343.820312 L 1258.21875 343.472656 L 1282.277344 343.335938 L 1306.332031 343.269531 C 1314.355469 343.246094 1322.375 343.261719 1330.390625 343.28125 L 1354.453125 343.355469 L 1378.511719 343.511719 L 1402.570312 343.765625 C 1410.589844 343.867188 1418.609375 343.976562 1426.628906 344.144531 L 1438.660156 344.367188 C 1442.667969 344.429688 1446.679688 344.554688 1450.691406 344.648438 C 1446.679688 344.742188 1442.667969 344.867188 1438.660156 344.929688 L 1426.628906 345.160156 C 1418.609375 345.320312 1410.589844 345.429688 1402.570312 345.535156 L 1378.511719 345.789062 L 1354.453125 345.945312 L 1330.390625 346.019531 C 1322.375 346.039062 1314.355469 346.054688 1306.332031 346.027344 L 1282.277344 345.96875 L 1258.21875 345.824219 L 1257.71875 345.820312 L 1257.386719 345.480469 L 1239.605469 327.316406 L 1230.746094 318.207031 L 1221.921875 309.0625 L 1222.296875 309.21875 L 1209.421875 308.976562 C 1205.128906 308.914062 1200.835938 308.785156 1196.542969 308.6875 " fill-opacity="1" fill-rule="nonzero"/><path fill="#ffffff" d="M 1339.542969 348.039062 L 1343.328125 351.460938 L 1347.078125 354.917969 C 1349.566406 357.230469 1352.058594 359.542969 1354.519531 361.886719 C 1356.992188 364.214844 1359.449219 366.5625 1361.894531 368.921875 C 1364.347656 371.273438 1366.796875 373.632812 1369.214844 376.011719 L 1368.347656 375.648438 C 1371.945312 375.613281 1375.546875 375.539062 1379.148438 375.535156 L 1389.945312 375.492188 L 1395.347656 375.5 L 1400.75 375.527344 C 1404.351562 375.53125 1407.953125 375.558594 1411.550781 375.613281 C 1415.148438 375.664062 1418.753906 375.695312 1422.351562 375.777344 C 1425.953125 375.855469 1429.550781 375.914062 1433.15625 376.03125 C 1436.753906 376.125 1440.355469 376.242188 1443.957031 376.378906 L 1449.355469 376.609375 C 1451.15625 376.675781 1452.957031 376.789062 1454.753906 376.886719 C 1452.957031 376.972656 1451.15625 377.085938 1449.355469 377.15625 L 1443.957031 377.382812 C 1440.355469 377.523438 1436.753906 377.640625 1433.15625 377.734375 C 1429.550781 377.855469 1425.953125 377.90625 1422.351562 377.988281 C 1418.753906 378.070312 1415.148438 378.101562 1411.550781 378.152344 C 1407.953125 378.203125 1404.351562 378.238281 1400.75 378.246094 L 1395.347656 378.265625 L 1389.945312 378.273438 L 1379.148438 378.230469 C 1375.546875 378.222656 1371.945312 378.152344 1368.347656 378.117188 L 1367.824219 378.109375 L 1367.472656 377.753906 C 1365.097656 375.328125 1362.742188 372.875 1360.394531 370.425781 C 1358.039062 367.976562 1355.699219 365.515625 1353.367188 363.039062 C 1351.027344 360.570312 1348.71875 358.082031 1346.40625 355.589844 L 1342.960938 351.832031 L 1339.542969 348.039062 " fill-opacity="1" fill-rule="nonzero"/><path fill="#ffffff" d="M 880.75 196.714844 C 880.75 201.226562 877.09375 204.878906 872.59375 204.878906 C 868.089844 204.878906 864.4375 201.226562 864.4375 196.714844 C 864.4375 192.203125 868.089844 188.550781 872.59375 188.550781 C 877.09375 188.550781 880.75 192.203125 880.75 196.714844 " fill-opacity="1" fill-rule="nonzero"/><path fill="#ffffff" d="M 893.625 267.289062 C 893.625 271.796875 889.96875 275.457031 885.46875 275.457031 C 880.964844 275.457031 877.3125 271.796875 877.3125 267.289062 C 877.3125 262.78125 880.964844 259.125 885.46875 259.125 C 889.96875 259.125 893.625 262.78125 893.625 267.289062 " fill-opacity="1" fill-rule="nonzero"/><g clip-path="url(#013f59bf18)"><path fill="#ffffff" d="M 852.957031 341.933594 C 852.957031 346.445312 849.308594 350.101562 844.808594 350.101562 C 840.300781 350.101562 836.652344 346.445312 836.652344 341.933594 C 836.652344 337.425781 840.300781 333.769531 844.808594 333.769531 C 849.308594 333.769531 852.957031 337.425781 852.957031 341.933594 " fill-opacity="1" fill-rule="nonzero"/></g><path fill="#ffffff" d="M 909.929688 333.769531 C 909.929688 338.277344 906.28125 341.933594 901.78125 341.933594 C 897.273438 341.933594 893.625 338.277344 893.625 333.769531 C 893.625 329.261719 897.273438 325.605469 901.78125 325.605469 C 906.28125 325.605469 909.929688 329.261719 909.929688 333.769531 " fill-opacity="1" fill-rule="nonzero"/><path fill="#ffffff" d="M 1128.117188 241.839844 C 1128.117188 246.351562 1124.464844 250.007812 1119.960938 250.007812 C 1115.457031 250.007812 1111.804688 246.351562 1111.804688 241.839844 C 1111.804688 237.332031 1115.457031 233.675781 1119.960938 233.675781 C 1124.464844 233.675781 1128.117188 237.332031 1128.117188 241.839844 " fill-opacity="1" fill-rule="nonzero"/><path fill="#ffffff" d="M 1156.539062 313.257812 C 1156.539062 317.765625 1152.890625 321.421875 1148.382812 321.421875 C 1143.882812 321.421875 1140.234375 317.765625 1140.234375 313.257812 C 1140.234375 308.746094 1143.882812 305.09375 1148.382812 305.09375 C 1152.890625 305.09375 1156.539062 308.746094 1156.539062 313.257812 " fill-opacity="1" fill-rule="nonzero"/><path fill="#ffffff" d="M 1100.328125 272.039062 C 1100.328125 276.546875 1096.679688 280.203125 1092.175781 280.203125 C 1087.667969 280.203125 1084.019531 276.546875 1084.019531 272.039062 C 1084.019531 267.527344 1087.667969 263.875 1092.175781 263.875 C 1096.679688 263.875 1100.328125 267.527344 1100.328125 272.039062 " fill-opacity="1" fill-rule="nonzero"/><path fill="#ffffff" d="M 1204.695312 308.6875 C 1204.695312 313.195312 1201.046875 316.847656 1196.542969 316.847656 C 1192.042969 316.847656 1188.386719 313.195312 1188.386719 308.6875 C 1188.386719 304.171875 1192.042969 300.519531 1196.542969 300.519531 C 1201.046875 300.519531 1204.695312 304.171875 1204.695312 308.6875 " fill-opacity="1" fill-rule="nonzero"/><path fill="#ffffff" d="M 1214.183594 231.320312 C 1214.183594 235.832031 1210.535156 239.488281 1206.035156 239.488281 C 1201.527344 239.488281 1197.878906 235.832031 1197.878906 231.320312 C 1197.878906 226.8125 1201.527344 223.160156 1206.035156 223.160156 C 1210.535156 223.160156 1214.183594 226.8125 1214.183594 231.320312 " fill-opacity="1" fill-rule="nonzero"/><path fill="#ffffff" d="M 1274.503906 288.496094 C 1274.503906 293.003906 1270.851562 296.660156 1266.347656 296.660156 C 1261.847656 296.660156 1258.191406 293.003906 1258.191406 288.496094 C 1258.191406 283.984375 1261.847656 280.332031 1266.347656 280.332031 C 1270.851562 280.332031 1274.503906 283.984375 1274.503906 288.496094 " fill-opacity="1" fill-rule="nonzero"/><path fill="#ffffff" d="M 1352.644531 354.203125 C 1352.644531 358.71875 1348.996094 362.371094 1344.492188 362.371094 C 1339.984375 362.371094 1336.335938 358.71875 1336.335938 354.203125 C 1336.335938 349.695312 1339.984375 346.042969 1344.492188 346.042969 C 1348.996094 346.042969 1352.644531 349.695312 1352.644531 354.203125 " fill-opacity="1" fill-rule="nonzero"/><path fill="#ffffff" d="M 1343.335938 296.785156 C 1343.335938 301.296875 1339.683594 304.953125 1335.179688 304.953125 C 1330.679688 304.953125 1327.023438 301.296875 1327.023438 296.785156 C 1327.023438 292.277344 1330.679688 288.621094 1335.179688 288.621094 C 1339.683594 288.621094 1343.335938 292.277344 1343.335938 296.785156 " fill-opacity="1" fill-rule="nonzero"/></svg>